<svg width="18" height="12" viewBox="0 0 18 12" fill="none" xmlns="http://www.w3.org/2000/svg">
<rect width="18" height="12" rx="2" fill="white"/>
<mask id="mask0_1282_4727" style="mask-type:luminance" maskUnits="userSpaceOnUse" x="0" y="0" width="18" height="12">
<rect width="18" height="12" rx="2" fill="white"/>
</mask>
<g mask="url(#mask0_1282_4727)">
<rect width="18" height="12" fill="#0A17A7"/>
<path d="M19.7832 0.17627L13.71 3.99951H18V7.99951H13.709L19.7832 11.8237L18.8242 13.1499L11.1426 8.31299V12.8003H6.85742V8.31299L-0.824219 13.1499L-1.7832 11.8237L4.29102 7.99951H0V3.99951H4.29004L-1.7832 0.17627L-0.824219 -1.1499L6.85742 3.68604V-0.800293H11.1426V3.68604L18.8242 -1.1499L19.7832 0.17627Z" fill="white"/>
<path d="M12.001 3.79937L20.143 -1.19995" stroke="#DB1F35" stroke-width="0.666667" stroke-linecap="round"/>
<path d="M12.8652 8.21848L20.1641 12.8102" stroke="#DB1F35" stroke-width="0.666667" stroke-linecap="round"/>
<path d="M5.14657 3.7863L-2.4668 -1.00256" stroke="#DB1F35" stroke-width="0.666667" stroke-linecap="round"/>
<path d="M5.97232 8.16289L-2.4668 13.3862" stroke="#DB1F35" stroke-width="0.666667" stroke-linecap="round"/>
<path fill-rule="evenodd" clip-rule="evenodd" d="M0 7.2H7.71429V12H10.2857V7.2H18V4.8H10.2857V0H7.71429V4.8H0V7.2Z" fill="#E6273E"/>
</g>
</svg>
